<svg id="eJ2Nspuma4P1" xmlns="http://www.w3.org/2000/svg" xmlns:xlink="http://www.w3.org/1999/xlink" viewBox="0 0 300 300" shape-rendering="geometricPrecision" text-rendering="geometricPrecision" project-id="c68d295397c44909aecca14f7eb9890e" export-id="ec4d152d0c5e4578b22bb1596e899b47" cached="false"><defs><linearGradient id="eJ2Nspuma4P17-fill" x1="199.982419" y1="281.251211" x2="199.982419" y2="335.183404" spreadMethod="pad" gradientUnits="userSpaceOnUse" gradientTransform="translate(0 0)"><stop id="eJ2Nspuma4P17-fill-0" offset="0%" stop-color="#f6ae42"/><stop id="eJ2Nspuma4P17-fill-1" offset="100%" stop-color="#eba241"/></linearGradient><linearGradient id="eJ2Nspuma4P20-fill" x1="199.981111" y1="215.168434" x2="199.981111" y2="302.47975" spreadMethod="pad" gradientUnits="userSpaceOnUse" gradientTransform="translate(0 0)"><stop id="eJ2Nspuma4P20-fill-0" offset="0%" stop-color="#f6ae42"/><stop id="eJ2Nspuma4P20-fill-1" offset="100%" stop-color="#eba241"/></linearGradient><linearGradient id="eJ2Nspuma4P23-fill" x1="199.982419" y1="153.220203" x2="199.982419" y2="231.932866" spreadMethod="pad" gradientUnits="userSpaceOnUse" gradientTransform="translate(0 0)"><stop id="eJ2Nspuma4P23-fill-0" offset="0%" stop-color="#f6ae42"/><stop id="eJ2Nspuma4P23-fill-1" offset="100%" stop-color="#eba241"/></linearGradient><linearGradient id="eJ2Nspuma4P26-fill" x1="199.982419" y1="72.861699" x2="199.982419" y2="165.548645" spreadMethod="pad" gradientUnits="userSpaceOnUse" gradientTransform="translate(0 0)"><stop id="eJ2Nspuma4P26-fill-0" offset="0%" stop-color="#f6ae42"/><stop id="eJ2Nspuma4P26-fill-1" offset="100%" stop-color="#eba241"/></linearGradient></defs><g transform="matrix(.894179 0 0 0.637075-28.880512 22.585)"><g><rect width="257.1" height="33.6" rx="0" ry="0" transform="translate(71.5 341.4)" clip-rule="evenodd" fill="#fab347" fill-rule="evenodd"/><g><path d="M93.6,350.8v0c2.4,0,4.4,2,4.4,4.4v10.3h-8.9v-10.3c.1-2.4,2.1-4.4,4.5-4.4Z" clip-rule="evenodd" fill="#965f26" fill-rule="evenodd"/><path d="M120.2,350.8v0c-2.4,0-4.4,2-4.4,4.4v10.3h8.9v-10.3c-.1-2.4-2-4.4-4.5-4.4Z" clip-rule="evenodd" fill="#965f26" fill-rule="evenodd"/><path d="M146.8,350.8v0c-2.4,0-4.4,2-4.4,4.4v10.3h8.9v-10.3c-.1-2.4-2.1-4.4-4.5-4.4Z" clip-rule="evenodd" fill="#965f26" fill-rule="evenodd"/><path d="M173.4,350.8v0c-2.4,0-4.4,2-4.4,4.4v10.3h8.9v-10.3c-.1-2.4-2.1-4.4-4.5-4.4Z" clip-rule="evenodd" fill="#965f26" fill-rule="evenodd"/><path d="M200,350.8v0c-2.4,0-4.4,2-4.4,4.4v10.3h8.9v-10.3c-.1-2.4-2.1-4.4-4.5-4.4v0Z" clip-rule="evenodd" fill="#965f26" fill-rule="evenodd"/><path d="M226.6,350.8v0c-2.4,0-4.4,2-4.4,4.4v10.3h8.9v-10.3c-.1-2.4-2.1-4.4-4.5-4.4Z" clip-rule="evenodd" fill="#965f26" fill-rule="evenodd"/><path d="M253.2,350.8v0c-2.4,0-4.4,2-4.4,4.4v10.3h8.9v-10.3c-.1-2.4-2.1-4.4-4.5-4.4Z" clip-rule="evenodd" fill="#965f26" fill-rule="evenodd"/><path d="M279.8,350.8v0c-2.4,0-4.4,2-4.4,4.4v10.3h8.9v-10.3c-.1-2.4-2.1-4.4-4.5-4.4v0Z" clip-rule="evenodd" fill="#965f26" fill-rule="evenodd"/><path d="M306.4,350.8v0c-2.4,0-4.4,2-4.4,4.4v10.3h8.9v-10.3c-.1-2.4-2.1-4.4-4.5-4.4Z" clip-rule="evenodd" fill="#965f26" fill-rule="evenodd"/></g><rect width="229.9" height="6.2" rx="0" ry="0" transform="translate(85 335.2)" clip-rule="evenodd" fill="#e3932b" fill-rule="evenodd"/></g><g><polygon points="299.8,281.3 100.2,304.2 100.2,335.2 299.8,335.2" clip-rule="evenodd" fill="url(#eJ2Nspuma4P17-fill)" fill-rule="evenodd"/><polygon points="299.8,281.3 299.8,317.1 297.1,283.1 104,306.6 100.2,314.4 100.2,304.2" clip-rule="evenodd" fill="#e89d3a" fill-rule="evenodd"/></g><g><path d="M285.2,215.2L114.7,234.8c0,22.6,0,45.2,0,67.8L285.2,283c0-22.6,0-45.2,0-67.8v0Z" clip-rule="evenodd" fill="url(#eJ2Nspuma4P20-fill)" fill-rule="evenodd"/><polygon points="285.2,215.2 285.2,251 280.3,222.8 118.6,237.2 114.8,244.9 114.8,234.7" clip-rule="evenodd" fill="#e89d3a" fill-rule="evenodd"/></g><g><path d="M137.9,231.9L262,217.7c0-16.4,0-48,0-64.5L137.9,167.4c0,16.5,0,48.1,0,64.5Z" clip-rule="evenodd" fill="url(#eJ2Nspuma4P23-fill)" fill-rule="evenodd"/><polygon points="262.1,153.2 262.1,167.6 256.3,154.7 139.4,169.5 137.9,187 137.9,167.5" clip-rule="evenodd" fill="#e89d3a" fill-rule="evenodd"/></g><g><path d="M245.7,72.9L154.4,83.4c0,12.1,0,70.1,0,82.2l91.3-10.5c0-12.1,0-70.1,0-82.2v0Z" clip-rule="evenodd" fill="url(#eJ2Nspuma4P26-fill)" fill-rule="evenodd"/><polygon points="245.7,72.9 245.7,92.1 244.1,78.1 155.6,84.3 154.3,107.3 154.3,83.4" clip-rule="evenodd" fill="#e89d3a" fill-rule="evenodd"/></g><g><polygon points="173.8,35.5 173.8,81.1 226.2,75.1 226.2,35.5" clip-rule="evenodd" fill="#f6ae42" fill-rule="evenodd"/><g><path d="M183.3,49v0c2.3,0,4.2,1.9,4.2,4.2v9.7h-8.3v-9.7c0-2.4,1.9-4.2,4.1-4.2Z" clip-rule="evenodd" fill="#965f26" fill-rule="evenodd"/><path d="M200,49v0c-2.3,0-4.2,1.9-4.2,4.2v9.7h8.3v-9.7c.1-2.4-1.8-4.2-4.1-4.2Z" clip-rule="evenodd" fill="#965f26" fill-rule="evenodd"/><path d="M216.7,49v0c-2.3,0-4.2,1.9-4.2,4.2v9.7h8.3v-9.7c0-2.4-1.9-4.2-4.1-4.2Z" clip-rule="evenodd" fill="#965f26" fill-rule="evenodd"/></g><polygon points="180,25 180,35.5 220,35.5 220,25" clip-rule="evenodd" fill="#d69540" fill-rule="evenodd"/></g></g></svg>
